<?xml version="1.0" encoding="utf-8"?>
<!-- Generator: Adobe Illustrator 22.0.0, SVG Export Plug-In . SVG Version: 6.00 Build 0)  -->
<svg version="1.1" id="Layer_1" xmlns="http://www.w3.org/2000/svg" xmlns:xlink="http://www.w3.org/1999/xlink" x="0px" y="0px"
	 viewBox="0 0 435.3 367.9" style="enable-background:new 0 0 435.3 367.9;" xml:space="preserve">
<style type="text/css">
	.st0{clip-path:url(#SVGID_4_);fill:#007FC5;}
	.st1{clip-path:url(#SVGID_4_);fill:#FEC14B;}
	.st2{clip-path:url(#SVGID_4_);fill:#D34D42;}
	.st3{fill:none;stroke:#939598;stroke-width:1.236;stroke-linecap:round;stroke-linejoin:round;stroke-dasharray:0,3.707;}
	.st4{clip-path:url(#SVGID_6_);fill:none;stroke:#939598;stroke-width:1.236;stroke-linecap:round;stroke-linejoin:round;}
	.st5{clip-path:url(#SVGID_6_);fill:#FFFFFF;}
	.st6{clip-path:url(#SVGID_6_);fill:#005EAC;}
	.st7{clip-path:url(#SVGID_6_);fill:#007FC5;}
</style>
<g>
	<defs>
		<rect id="SVGID_1_" x="344.6" y="203" width="65.3" height="95.4"/>
	</defs>
	<clipPath id="SVGID_2_">
		<use xlink:href="#SVGID_1_"  style="overflow:visible;"/>
	</clipPath>
	<g transform="matrix(1 0 0 1 0 0)" style="clip-path:url(#SVGID_2_);">
		
			<image style="overflow:visible;" width="276" height="404" xlink:href="C207DBDC060E1D46.png"  transform="matrix(0.2365 0 0 0.2362 344.5718 202.9942)">
		</image>
	</g>
</g>
<g>
	<defs>
		<rect id="SVGID_3_" x="34" y="38.1" width="375.8" height="286.8"/>
	</defs>
	<clipPath id="SVGID_4_">
		<use xlink:href="#SVGID_3_"  style="overflow:visible;"/>
	</clipPath>
	<path class="st0" d="M324.9,301.9c1.9,0,5.3-0.8,5.3-3.9c0-2.9-2.9-3.5-5.3-4c-1.6-0.3-2.7-0.4-2.7-1.5c0-0.9,0.8-1.8,2.7-1.8
		c1.3,0,2.5,0.4,3.5,1c0.2,0.1,0.3,0.1,0.5,0.1c0.6,0,1.1-0.5,1.1-1.1c0-0.4-0.2-0.8-0.6-1c-1.3-0.7-2.8-1.2-4.4-1.2
		c-2.3,0-5.2,1.2-5.2,4.2c0,3.1,3.1,3.6,5.1,3.9c1.8,0.3,2.9,0.5,3,1.5c0,1.4-2,1.6-2.9,1.6c-1.3,0-2.5-0.5-3.7-1
		c-0.8-0.4-1.6,0.2-1.6,1c0,0.4,0.2,0.8,0.6,1C321.7,301.4,323.4,301.9,324.9,301.9z M310.1,299.4h-2.9v-8.6h2.9
		c2.4,0,4.3,1.9,4.3,4.3S312.5,299.4,310.1,299.4 M310.1,288.6H306c-0.6,0-1.2,0.5-1.2,1.2v10.8c0,0.6,0.5,1.2,1.2,1.2h4.1
		c3.7,0,6.6-2.9,6.6-6.6C316.8,291.5,313.8,288.6,310.1,288.6 M300.6,301.7c0.6,0,1.2-0.5,1.2-1.2v-10.8c0-0.6-0.5-1.2-1.2-1.2
		c-0.6,0-1.2,0.5-1.2,1.2v10.8C299.4,301.2,299.9,301.7,300.6,301.7 M289.1,296.5l1.8-4l1.8,4H289.1z M296.8,300.1l-4.8-10.9
		c-0.2-0.4-0.6-0.7-1.1-0.7c-0.5,0-0.9,0.3-1.1,0.7l-4.8,10.9c-0.3,0.6,0,1.3,0.6,1.5c0.6,0.3,1.3,0,1.5-0.6l1-2.2h5.6l1,2.2
		c0.3,0.6,1,0.9,1.5,0.6C296.8,301.3,297,300.7,296.8,300.1 M275.7,290.2c0.3-0.6,0-1.3-0.6-1.5c-0.6-0.3-1.3,0-1.5,0.6l-3.8,8.6
		l-3.8-8.6c-0.3-0.6-1-0.9-1.5-0.6c-0.6,0.3-0.9,1-0.6,1.5l4.8,10.9c0.2,0.4,0.6,0.7,1.1,0.7c0.5,0,0.9-0.3,1.1-0.7L275.7,290.2z
		 M260.1,301.7c0.6,0,1.2-0.5,1.2-1.2v-10.8c0-0.6-0.5-1.2-1.2-1.2c-0.6,0-1.2,0.5-1.2,1.2v10.8
		C258.9,301.2,259.4,301.7,260.1,301.7 M254.6,288.6c-0.6,0-1.2,0.5-1.2,1.2v4.4H246v-4.4c0-0.6-0.5-1.2-1.2-1.2
		c-0.6,0-1.2,0.5-1.2,1.2v10.7c0,0.6,0.5,1.2,1.2,1.2c0.6,0,1.2-0.5,1.2-1.2v-4h7.4v4c0,0.6,0.5,1.2,1.2,1.2c0.6,0,1.2-0.5,1.2-1.2
		v-10.8C255.8,289.1,255.3,288.6,254.6,288.6 M232.3,288.6c-0.6,0-1.2,0.5-1.2,1.2v7.7l-7.5-8.4c-0.1-0.1-0.1-0.1-0.2-0.2l0-0.1l0,0
		c-0.2-0.2-0.5-0.3-0.7-0.3c-0.6,0-1.2,0.5-1.2,1.2v10.7c0,0.6,0.5,1.2,1.2,1.2c0.6,0,1.2-0.5,1.2-1.2v-7.8l7.4,8.3
		c0.2,0.4,0.6,0.7,1.1,0.7c0.6,0,1.2-0.5,1.2-1.2v-10.7C233.5,289.1,232.9,288.6,232.3,288.6 M211.2,296.5l1.8-4l1.8,4H211.2z
		 M218.9,300.1l-4.8-10.9c-0.2-0.4-0.6-0.7-1.1-0.7c-0.5,0-0.9,0.3-1.1,0.7l-4.8,10.9c-0.3,0.6,0,1.3,0.6,1.5c0.6,0.3,1.3,0,1.5-0.6
		l1-2.2h5.6l1,2.2c0.3,0.6,1,0.9,1.5,0.6C218.9,301.3,219.2,300.7,218.9,300.1 M203.3,301.7c0.6,0,1.2-0.5,1.2-1.2v-10.8
		c0-0.6-0.5-1.2-1.2-1.2c-0.6,0-1.2,0.5-1.2,1.2v10.8C202.1,301.2,202.6,301.7,203.3,301.7 M198.5,288.6H189c-0.6,0-1.1,0.5-1.1,1.1
		c0,0.6,0.5,1.1,1.1,1.1h3.6v9.7c0,0.6,0.5,1.2,1.2,1.2c0.6,0,1.2-0.5,1.2-1.2v-9.7h3.6c0.6,0,1.1-0.5,1.1-1.1
		C199.6,289.1,199.1,288.6,198.5,288.6 M184.2,301.7c0.6,0,1.2-0.5,1.2-1.2v-10.8c0-0.6-0.5-1.2-1.2-1.2c-0.6,0-1.2,0.5-1.2,1.2
		v10.8C183,301.2,183.5,301.7,184.2,301.7 M179.4,299.4h-6.7v-9.7c0-0.6-0.5-1.2-1.2-1.2c-0.6,0-1.2,0.5-1.2,1.2v10.8
		c0,0.6,0.5,1.2,1.2,1.2h7.9c0.6,0,1.1-0.5,1.1-1.1S180,299.4,179.4,299.4 M166.1,299.4h-6.2v-2.8h5c0.6,0,1.1-0.5,1.1-1.1
		s-0.5-1.1-1.1-1.1h-5v-3.5h6.2c0.6,0,1.1-0.5,1.1-1.1c0-0.6-0.5-1.1-1.1-1.1h-7.3c-0.6,0-1.2,0.5-1.2,1.2v10.8
		c0,0.6,0.5,1.2,1.2,1.2h7.3c0.6,0,1.1-0.5,1.1-1.1S166.7,299.4,166.1,299.4 M153.3,288.6c-0.6,0-1.2,0.5-1.2,1.2v7.7l-7.5-8.4
		c-0.1-0.1-0.1-0.1-0.2-0.2l0-0.1l0,0c-0.2-0.2-0.5-0.3-0.7-0.3c-0.6,0-1.2,0.5-1.2,1.2v10.7c0,0.6,0.5,1.2,1.2,1.2
		c0.6,0,1.2-0.5,1.2-1.2v-7.8l7.4,8.3c0.2,0.4,0.6,0.7,1.1,0.7c0.6,0,1.2-0.5,1.2-1.2v-10.7C154.5,289.1,153.9,288.6,153.3,288.6
		 M138.3,299.4h-6.2v-2.8h5c0.6,0,1.1-0.5,1.1-1.1s-0.5-1.1-1.1-1.1h-5v-3.5h6.2c0.6,0,1.1-0.5,1.1-1.1c0-0.6-0.5-1.1-1.1-1.1H131
		c-0.6,0-1.2,0.5-1.2,1.2v10.8c0,0.6,0.5,1.2,1.2,1.2h7.3c0.6,0,1.1-0.5,1.1-1.1S138.9,299.4,138.3,299.4 M122.4,295.3h-3.1v-4.5
		h3.1c1.2,0,2.2,1,2.2,2.2C124.6,294.3,123.6,295.3,122.4,295.3 M122.4,288.6h-4.3c-0.6,0-1.2,0.5-1.2,1.2v10.8
		c0,0.6,0.5,1.2,1.2,1.2c0.6,0,1.2-0.5,1.2-1.2v-2.9h3.1c2.5,0,4.5-2,4.5-4.5C126.9,290.6,124.9,288.6,122.4,288.6 M106.1,288.6
		h-9.5c-0.6,0-1.1,0.5-1.1,1.1c0,0.6,0.5,1.1,1.1,1.1h3.6v9.7c0,0.6,0.5,1.2,1.2,1.2c0.6,0,1.2-0.5,1.2-1.2v-9.7h3.6
		c0.6,0,1.1-0.5,1.1-1.1C107.3,289.1,106.8,288.6,106.1,288.6 M85.8,296.5l1.8-4l1.8,4H85.8z M93.5,300.1l-4.8-10.9
		c-0.2-0.4-0.6-0.7-1.1-0.7c-0.5,0-0.9,0.3-1.1,0.7l-4.8,10.9c-0.3,0.6,0,1.3,0.6,1.5c0.6,0.3,1.3,0,1.5-0.6l1-2.2h5.6l1,2.2
		c0.3,0.6,1,0.9,1.5,0.6C93.5,301.3,93.7,300.7,93.5,300.1 M73.7,301.9c1.9,0,5.3-0.8,5.3-3.9c0-2.9-2.9-3.5-5.3-4
		c-1.6-0.3-2.7-0.4-2.7-1.5c0-0.9,0.8-1.8,2.7-1.8c1.3,0,2.5,0.4,3.5,1c0.2,0.1,0.3,0.1,0.5,0.1c0.6,0,1.1-0.5,1.1-1.1
		c0-0.4-0.2-0.8-0.6-1c-1.3-0.7-2.8-1.2-4.4-1.2c-2.3,0-5.2,1.2-5.2,4.2c0,3.1,3.1,3.6,5.1,3.9c1.8,0.3,2.9,0.5,3,1.5
		c0,1.4-2,1.6-2.9,1.6c-1.3,0-2.5-0.5-3.7-1c-0.8-0.4-1.7,0.2-1.7,1c0,0.4,0.2,0.8,0.6,1C70.5,301.4,72.2,301.9,73.7,301.9z
		 M59.2,301.9c3.4,0,6.2-2.7,6.2-6.1v-6.1c0-0.6-0.5-1.2-1.2-1.2c-0.6,0-1.2,0.5-1.2,1.2v6.1c0,2.1-1.7,3.8-3.8,3.8
		s-3.8-1.7-3.8-3.8v-6.1c0-0.6-0.5-1.2-1.2-1.2c-0.6,0-1.2,0.5-1.2,1.2v6.1C53.1,299.2,55.8,301.9,59.2,301.9 M45.7,295.3h-3.1v-4.5
		h3.1c1.2,0,2.2,1,2.2,2.2C47.8,294.3,46.9,295.3,45.7,295.3 M45.7,288.6h-4.3c-0.6,0-1.2,0.5-1.2,1.2v10.8c0,0.6,0.5,1.2,1.2,1.2
		c0.6,0,1.2-0.5,1.2-1.2v-2.9h3.1c2.5,0,4.5-2,4.5-4.5C50.2,290.6,48.2,288.6,45.7,288.6"/>
	<path class="st0" d="M225.4,319.5l1.8-4l1.8,4H225.4z M233,323.1l-4.8-10.9c-0.2-0.4-0.6-0.7-1.1-0.7c-0.5,0-0.9,0.3-1.1,0.7
		l-4.8,10.9c-0.3,0.6,0,1.3,0.6,1.5c0.6,0.3,1.3,0,1.5-0.6l1-2.2h5.6l1,2.2c0.3,0.6,1,0.9,1.5,0.6C233,324.4,233.3,323.7,233,323.1
		 M219.6,311.8c-0.5-0.4-1.3-0.2-1.6,0.4l-3.6,5.7l-3.6-5.7c-0.3-0.5-1.1-0.7-1.6-0.4c-0.5,0.3-0.7,1.1-0.4,1.6l4.4,6.9v3.3
		c0,0.6,0.5,1.2,1.2,1.2c0.6,0,1.2-0.5,1.2-1.2v-3.3l4.4-6.9C220.3,312.9,220.1,312.1,219.6,311.8 M199.8,319.5l1.8-4l1.8,4H199.8z
		 M207.5,323.1l-4.8-10.9c-0.2-0.4-0.6-0.7-1.1-0.7c-0.5,0-0.9,0.3-1.1,0.7l-4.8,10.9c-0.3,0.6,0,1.3,0.6,1.5c0.6,0.3,1.3,0,1.5-0.6
		l1-2.2h5.6l1,2.2c0.3,0.6,1,0.9,1.5,0.6C207.5,324.4,207.7,323.7,207.5,323.1 M187.3,324.9c2.8,0,5-2.2,5-4.9v-7.2
		c0-0.6-0.5-1.2-1.2-1.2c-0.6,0-1.2,0.5-1.2,1.2v7.2c0,1.5-1.2,2.7-2.7,2.7c-1.2,0-2.2-0.8-2.5-1.9c-0.1-0.5-0.6-0.8-1.1-0.8
		c-0.8,0-1.3,0.8-1.1,1.5C183.1,323.4,185,324.9,187.3,324.9 M166.5,319.5l1.8-4l1.8,4H166.5z M174.2,323.1l-4.8-10.9
		c-0.2-0.4-0.6-0.7-1.1-0.7c-0.5,0-0.9,0.3-1.1,0.7l-4.8,10.9c-0.3,0.6,0,1.3,0.6,1.5c0.6,0.3,1.3,0,1.5-0.6l1-2.2h5.6l1,2.2
		c0.3,0.6,1,0.9,1.5,0.6C174.2,324.4,174.5,323.7,174.2,323.1 M157.6,311.6c-0.4,0-0.8,0.2-1,0.5l-4.4,5.4l-4.4-5.4
		c-0.2-0.3-0.6-0.5-1-0.5c-0.6,0-1.2,0.5-1.2,1.2v10.8c0,0.6,0.5,1.2,1.2,1.2c0.6,0,1.2-0.5,1.2-1.2v-7.6l3.3,4
		c0.2,0.3,0.6,0.4,0.9,0.4c0.3,0,0.7-0.1,0.9-0.4l3.3-4v7.6c0,0.6,0.5,1.2,1.2,1.2c0.6,0,1.2-0.5,1.2-1.2v-10.8
		C158.8,312.1,158.3,311.6,157.6,311.6 M141.1,311.6h-9.5c-0.6,0-1.1,0.5-1.1,1.1c0,0.6,0.5,1.1,1.1,1.1h3.6v9.7
		c0,0.6,0.5,1.2,1.2,1.2c0.6,0,1.2-0.5,1.2-1.2v-9.7h3.6c0.6,0,1.1-0.5,1.1-1.1C142.2,312.1,141.7,311.6,141.1,311.6 M119.8,319.5
		l1.8-4l1.8,4H119.8z M127.5,323.1l-4.8-10.9c-0.2-0.4-0.6-0.7-1.1-0.7c-0.5,0-0.9,0.3-1.1,0.7l-4.8,10.9c-0.3,0.6,0,1.3,0.6,1.5
		c0.6,0.3,1.3,0,1.5-0.6l1-2.2h5.6l1,2.2c0.3,0.6,1,0.9,1.5,0.6C127.5,324.4,127.7,323.7,127.5,323.1 M96.9,319.5l1.8-4l1.8,4H96.9z
		 M104.6,323.1l-4.8-10.9c-0.2-0.4-0.6-0.7-1.1-0.7c-0.5,0-0.9,0.3-1.1,0.7l-4.8,10.9c-0.3,0.6,0,1.3,0.6,1.5c0.6,0.3,1.3,0,1.5-0.6
		l1-2.2h5.6l1,2.2c0.3,0.6,1,0.9,1.5,0.6C104.6,324.4,104.9,323.7,104.6,323.1 M89.5,322.7l-4.6-5.2l4.1-3.9c0.5-0.4,0.5-1.2,0-1.7
		c-0.4-0.5-1.2-0.5-1.7,0l-6.1,5.8v-4.9c0-0.6-0.5-1.2-1.2-1.2c-0.6,0-1.2,0.5-1.2,1.2v10.8c0,0.6,0.5,1.2,1.2,1.2
		c0.6,0,1.2-0.5,1.2-1.2v-2.6l1.9-1.8l4.6,5.1c0.4,0.5,1.2,0.5,1.7,0.1C89.9,324,89.9,323.2,89.5,322.7 M73.7,324.7
		c0.6,0,1.2-0.5,1.2-1.2v-10.8c0-0.6-0.5-1.2-1.2-1.2c-0.6,0-1.2,0.5-1.2,1.2v10.8C72.5,324.2,73.1,324.7,73.7,324.7 M67.3,311.6
		c-0.6,0-1.2,0.5-1.2,1.2v7.7l-7.5-8.4c0-0.1-0.1-0.1-0.2-0.2l0-0.1l0,0c-0.2-0.2-0.5-0.3-0.7-0.3c-0.6,0-1.2,0.5-1.2,1.2v10.7
		c0,0.6,0.5,1.2,1.2,1.2c0.6,0,1.2-0.5,1.2-1.2v-7.8l7.4,8.3c0.2,0.4,0.6,0.7,1.1,0.7c0.6,0,1.2-0.5,1.2-1.2v-10.7
		C68.5,312.1,68,311.6,67.3,311.6 M46.3,324.9c3.4,0,6.2-2.7,6.2-6.1v-6.1c0-0.6-0.5-1.2-1.2-1.2c-0.6,0-1.2,0.5-1.2,1.2v6.1
		c0,2.1-1.7,3.8-3.8,3.8c-2.1,0-3.8-1.7-3.8-3.8v-6.1c0-0.6-0.5-1.2-1.2-1.2c-0.6,0-1.2,0.5-1.2,1.2v6.1
		C40.2,322.2,42.9,324.9,46.3,324.9"/>
	<path class="st1" d="M138.1,71.2c7.3,0,13.3-5.9,13.3-13.3c0-7.3-5.9-13.3-13.3-13.3s-13.3,5.9-13.3,13.3
		C124.9,65.3,130.8,71.2,138.1,71.2"/>
	<path class="st2" d="M99.8,73.8c8.7,0,15.8-7.1,15.8-15.8c0-8.7-7.1-15.8-15.8-15.8S83.9,49.2,83.9,58C83.9,66.7,91,73.8,99.8,73.8
		"/>
	<path class="st0" d="M53.9,77.9c11,0,19.9-8.9,19.9-19.9c0-11-8.9-19.9-19.9-19.9S34,47,34,58C34,69,42.9,77.9,53.9,77.9"/>
</g>
<line class="st3" x1="38.3" y1="268.3" x2="333" y2="268.3"/>
<g>
	<defs>
		<rect id="SVGID_5_" x="34" y="38.1" width="375.8" height="286.8"/>
	</defs>
	<clipPath id="SVGID_6_">
		<use xlink:href="#SVGID_5_"  style="overflow:visible;"/>
	</clipPath>
	<path class="st4" d="M334.9,268.3L334.9,268.3 M34.6,268.3L34.6,268.3"/>
	<path class="st5" d="M108.5,164.7c0,15.7-12.8,28.5-28.5,28.5s-28.5-12.8-28.5-28.5c0-15.7,12.8-28.5,28.5-28.5
		S108.5,149,108.5,164.7 M125.6,164.7c0-25.1-20.4-45.6-45.6-45.6c-10.8,0-20.7,3.8-28.5,10.1v-1.5c0-4.7-3.8-8.5-8.5-8.5
		c-4.7,0-8.5,3.8-8.5,8.5v116.6c0,4.7,3.8,8.5,8.5,8.5c4.7,0,8.5-3.8,8.5-8.5v-44.1c7.8,6.3,17.7,10.1,28.5,10.1
		C105.1,210.3,125.6,189.8,125.6,164.7 M215.6,164.7c0,15.7-12.8,28.5-28.5,28.5c-15.7,0-28.5-12.8-28.5-28.5v-0.1
		c0-15.7,12.8-28.5,28.5-28.5C202.8,136.2,215.6,149,215.6,164.7 M232.6,164.7c0-25.1-20.4-45.6-45.6-45.6
		c-10.8,0-20.7,3.8-28.5,10.1v-1.3c0-4.7-3.8-8.5-8.5-8.5c-4.7,0-8.5,3.8-8.5,8.5v36.7c0,0,0,0.1,0,0.1s0,0.1,0,0.1v79.7
		c0,4.7,3.8,8.5,8.5,8.5c4.7,0,8.5-3.8,8.5-8.5v-44.3c7.8,6.3,17.7,10.1,28.5,10.1C212.2,210.3,232.6,189.8,232.6,164.7
		 M339.7,164.8l0-2.1c-1.1-24.4-21.1-43.6-45.5-43.6c-10.8,0-20.7,3.9-28.5,10.2v-44c0-4.5-3.8-8.2-8.5-8.2c-4.7,0-8.5,3.7-8.5,8.2
		v116.7c0,4.5,3.8,8.1,8.4,8.2c0,0,0.1,0,0.1,0c0,0,0,0,0,0c0,0,0,0,0,0c4.7,0,8.5-3.7,8.5-8.2v-0.3c0,0,0,0,0,0v-37
		c0-15.7,12.8-28.5,28.5-28.5c15.5,0,28.3,12.6,28.5,28.1v37.4c0,4.7,3.8,8.5,8.5,8.5c4.7,0,8.5-3.8,8.5-8.5l0-36.7L339.7,164.8z"/>
	<path class="st6" d="M34,164.8c0,14.4,6.7,27.2,17.1,35.6v-71.1C40.7,137.6,34,150.5,34,164.8"/>
	<path class="st6" d="M250.1,163.1L250.1,163.1L250.1,163.1L250.1,163.1z M248.5,162.6l0,39.3c0,4.7,3.8,8.5,8.4,8.5
		c0,0,0.1,0,0.1,0c4.7,0,8.5-3.8,8.5-8.5v-72.7C255.7,137.1,249.1,149,248.5,162.6"/>
	<path class="st7" d="M34,164.8v79.7c0,4.7,3.8,8.5,8.6,8.5c4.7,0,8.5-3.8,8.5-8.5v-44.1C40.7,192,34,179.2,34,164.8 M51.1,129.3
		v-1.5c0-4.7-3.8-8.5-8.5-8.5c-4.7,0-8.6,3.8-8.6,8.5v37.1C34,150.5,40.7,137.6,51.1,129.3 M125.3,164.8c0-25.2-20.5-45.6-45.6-45.6
		c-10.8,0-20.7,3.8-28.5,10.1v35.6c0-15.7,12.8-28.5,28.5-28.5c15.7,0,28.5,12.8,28.5,28.5c0,15.7-12.8,28.6-28.5,28.6
		c-15.7,0-28.5-12.8-28.5-28.6v35.6c7.8,6.3,17.7,10.1,28.5,10.1C104.8,210.5,125.3,190,125.3,164.8"/>
	<path class="st6" d="M141.5,164.8c0,14.4,6.7,27.2,17.1,35.6v-71.1C148.2,137.6,141.5,150.5,141.5,164.8"/>
	<path class="st7" d="M141.5,164.8v79.7c0,4.7,3.8,8.5,8.6,8.5c4.7,0,8.5-3.8,8.5-8.5v-44.1C148.2,192,141.5,179.2,141.5,164.8
		 M158.6,129.3v-1.5c0-4.7-3.8-8.5-8.5-8.5c-4.7,0-8.6,3.8-8.6,8.5v37.1C141.5,150.5,148.2,137.6,158.6,129.3 M232.8,164.8
		c0-25.2-20.5-45.6-45.6-45.6c-10.8,0-20.7,3.8-28.5,10.1v35.6c0-15.7,12.8-28.5,28.5-28.5c15.7,0,28.5,12.8,28.5,28.5
		c0,15.7-12.8,28.6-28.5,28.6c-15.7,0-28.5-12.8-28.5-28.6v35.6c7.8,6.3,17.7,10.1,28.5,10.1C212.4,210.5,232.8,190,232.8,164.8"/>
	<path class="st7" d="M257,210.5c0,0-0.1,0-0.1,0C256.9,210.5,256.9,210.5,257,210.5C257,210.5,257,210.5,257,210.5 M257,210.5
		C257,210.5,257,210.5,257,210.5c4.7,0,8.5-3.7,8.5-8.2v-0.3C265.5,206.6,261.7,210.5,257,210.5 M248.4,201.9v0.3
		c0,4.5,3.8,8.2,8.4,8.2C252.2,210.4,248.4,206.6,248.4,201.9 M265.5,129.2V85.3c0-4.5-3.8-8.2-8.5-8.2c-4.7,0-8.6,3.7-8.6,8.2
		v116.6l0-39.3C249.1,149,255.7,137.1,265.5,129.2 M250.1,163.1L250.1,163.1L250.1,163.1L250.1,163.1z M339.7,165l0-2.1
		c-1.1-24.5-21.1-43.6-45.6-43.6c-10.8,0-20.7,3.7-28.5,10v72.7c0,0,0,0,0,0v-37.1c0-15.7,12.8-28.5,28.5-28.5
		c15.5,0,28.3,12.6,28.5,28.2v37.5c0,4.7,3.8,8.5,8.5,8.5c4.7,0,8.5-3.8,8.5-8.5l0-36.8L339.7,165z"/>
</g>
</svg>
