<?xml version="1.0" encoding="utf-8"?>
<!-- Generator: Adobe Illustrator 22.0.0, SVG Export Plug-In . SVG Version: 6.00 Build 0)  -->
<svg version="1.1" id="Layer_1" xmlns="http://www.w3.org/2000/svg" xmlns:xlink="http://www.w3.org/1999/xlink" x="0px" y="0px"
	 viewBox="0 0 512 512" style="enable-background:new 0 0 512 512;" xml:space="preserve">
<style type="text/css">
	.st0{fill:#FCFCFC;}
	.st1{fill:url(#SVGID_1_);}
	.st2{fill:url(#SVGID_2_);}
	.st3{fill:url(#SVGID_3_);}
</style>
<circle class="st0" cx="256" cy="256" r="256"/>
<g>
	
		<linearGradient id="SVGID_1_" gradientUnits="userSpaceOnUse" x1="256.517" y1="443.4228" x2="256.517" y2="153.5851" gradientTransform="matrix(1 0 0 1 0 -41.2756)">
		<stop  offset="0" style="stop-color:#E09B3D"/>
		<stop  offset="0.3" style="stop-color:#C74C4D"/>
		<stop  offset="0.6" style="stop-color:#C21975"/>
		<stop  offset="1" style="stop-color:#7024C4"/>
	</linearGradient>
	<path class="st1" d="M315.7,110H197.3c-48.1,0-87.3,39.2-87.3,87.3v118.4c0,48.1,39.2,87.3,87.3,87.3h118.4
		c48.1,0,87.3-39.2,87.3-87.3V197.3C403,149.2,363.8,110,315.7,110z M373.5,315.7c0,31.9-25.9,57.8-57.8,57.8H197.3
		c-31.9,0-57.8-25.9-57.8-57.8V197.3c0-31.9,25.9-57.8,57.8-57.8h118.4c31.9,0,57.8,25.9,57.8,57.8L373.5,315.7L373.5,315.7z"/>
	
		<linearGradient id="SVGID_2_" gradientUnits="userSpaceOnUse" x1="256.517" y1="443.4228" x2="256.517" y2="153.5851" gradientTransform="matrix(1 0 0 1 0 -41.2756)">
		<stop  offset="0" style="stop-color:#E09B3D"/>
		<stop  offset="0.3" style="stop-color:#C74C4D"/>
		<stop  offset="0.6" style="stop-color:#C21975"/>
		<stop  offset="1" style="stop-color:#7024C4"/>
	</linearGradient>
	<path class="st2" d="M256.5,180.7c-41.8,0-75.8,34-75.8,75.8s34,75.8,75.8,75.8s75.8-34,75.8-75.8S298.3,180.7,256.5,180.7z
		 M256.5,302.8c-25.6,0-46.3-20.7-46.3-46.3s20.7-46.3,46.3-46.3c25.6,0,46.3,20.7,46.3,46.3C302.8,282.1,282.1,302.8,256.5,302.8z"
		/>
	
		<linearGradient id="SVGID_3_" gradientUnits="userSpaceOnUse" x1="332.4352" y1="443.4228" x2="332.4352" y2="153.5851" gradientTransform="matrix(1 0 0 1 0 -41.2756)">
		<stop  offset="0" style="stop-color:#E09B3D"/>
		<stop  offset="0.3" style="stop-color:#C74C4D"/>
		<stop  offset="0.6" style="stop-color:#C21975"/>
		<stop  offset="1" style="stop-color:#7024C4"/>
	</linearGradient>
	<circle class="st3" cx="332.4" cy="181.3" r="18.2"/>
</g>
</svg>
