<?xml version="1.0" encoding="utf-8"?>
<!-- Generator: Adobe Illustrator 22.0.0, SVG Export Plug-In . SVG Version: 6.00 Build 0)  -->
<svg version="1.1" id="Capa_1" xmlns="http://www.w3.org/2000/svg" xmlns:xlink="http://www.w3.org/1999/xlink" x="0px" y="0px"
	 viewBox="0 0 49.7 49.7" style="enable-background:new 0 0 49.7 49.7;" xml:space="preserve">
<style type="text/css">
	.st0{fill:#FFFFFF;}
	.st1{fill:#03A9F4;}
</style>
<circle class="st0" cx="24.8" cy="24.8" r="24.8"/>
<path class="st1" d="M38.8,16.2c-1,0.5-2.1,0.8-3.3,0.9c1.2-0.7,2.1-1.8,2.5-3.2c-1.1,0.7-2.3,1.1-3.6,1.4c-1-1.1-2.5-1.8-4.2-1.8
	c-3.2,0-5.7,2.6-5.7,5.7c0,0.5,0,0.9,0.1,1.3c-4.7-0.2-8.9-2.5-11.8-6c-0.5,0.9-0.8,1.8-0.8,2.9c0,2,1,3.7,2.5,4.7
	c-0.9,0-1.8-0.3-2.6-0.7c0,0,0,0,0,0.1c0,2.8,2,5.1,4.6,5.6c-0.5,0.1-1,0.2-1.5,0.2c-0.4,0-0.7,0-1.1-0.1c0.7,2.3,2.8,3.9,5.3,4
	c-1.9,1.5-4.4,2.4-7.1,2.4c-0.5,0-0.9,0-1.4-0.1c2.5,1.6,5.5,2.6,8.8,2.6c10.5,0,16.3-8.7,16.3-16.2c0-0.3,0-0.5,0-0.7
	C37,18.3,38,17.3,38.8,16.2z"/>
</svg>
