<?xml version="1.0" encoding="iso-8859-1"?>
<!-- Generator: Adobe Illustrator 16.0.0, SVG Export Plug-In . SVG Version: 6.00 Build 0)  -->
<!DOCTYPE svg PUBLIC "-//W3C//DTD SVG 1.1//EN" "http://www.w3.org/Graphics/SVG/1.1/DTD/svg11.dtd">
<svg version="1.1" id="Capa_1" xmlns="http://www.w3.org/2000/svg" xmlns:xlink="http://www.w3.org/1999/xlink" x="0px" y="0px"
	 width="31.334px" height="31.334px" viewBox="0 0 31.334 31.334" style="enable-background:new 0 0 31.334 31.334;"
	 xml:space="preserve">
<g>
	<path d="M15.667,0.001C7.028,0.001,0,7.029,0,15.667c0,8.639,7.028,15.666,15.667,15.666c8.64,0,15.667-7.027,15.667-15.666
		C31.334,7.029,24.307,0.001,15.667,0.001z M23.047,18.095l-7.381,7.381l-7.379-7.379c-0.781-0.781-0.781-2.046,0-2.828
		c0.78-0.781,2.048-0.781,2.828,0l2.552,2.551V8.687c0-1.104,0.896-2,2-2c1.104,0,2,0.896,2,2v9.13l2.552-2.551
		c0.78-0.781,2.049-0.781,2.828,0C23.828,16.047,23.828,17.313,23.047,18.095z"/>
</g>
<g>
</g>
<g>
</g>
<g>
</g>
<g>
</g>
<g>
</g>
<g>
</g>
<g>
</g>
<g>
</g>
<g>
</g>
<g>
</g>
<g>
</g>
<g>
</g>
<g>
</g>
<g>
</g>
<g>
</g>
</svg>
