<?xml version="1.0" encoding="utf-8"?>
<!-- Generator: Adobe Illustrator 22.0.0, SVG Export Plug-In . SVG Version: 6.00 Build 0)  -->
<svg version="1.1" id="Layer_1" xmlns="http://www.w3.org/2000/svg" xmlns:xlink="http://www.w3.org/1999/xlink" x="0px" y="0px"
	 viewBox="0 0 24 24" style="enable-background:new 0 0 24 24;" xml:space="preserve">
<style type="text/css">
	.st0{fill:none;}
	.st1{fill:#231F20;}
</style>
<path class="st0" d="M0,0h24v24H0V0z"/>
<g>
	<path class="st1" d="M13.2,12c0-0.7-0.6-1.3-1.3-1.3c-0.7,0-1.3,0.6-1.3,1.3c0,0.7,0.6,1.3,1.3,1.3C12.6,13.4,13.2,12.8,13.2,12
		 M14.5,9.9c0,0.3-0.2,0.5-0.5,0.5s-0.5-0.2-0.5-0.5s0.2-0.5,0.5-0.5S14.5,9.6,14.5,9.9 M14,12c0,1.1-0.9,2.1-2.1,2.1
		c-1.1,0-2.1-0.9-2.1-2.1c0-1.1,0.9-2.1,2.1-2.1C13,10,14,10.9,14,12 M15.2,13.6c0-0.4,0-0.5,0-1.6c0-1.1,0-1.2,0-1.6
		c0-0.4-0.1-0.6-0.1-0.7c-0.1-0.2-0.2-0.3-0.3-0.5c-0.1-0.1-0.3-0.2-0.5-0.3c-0.1-0.1-0.4-0.1-0.7-0.1c-0.4,0-0.6,0-1.6,0
		c-1.1,0-1.2,0-1.6,0c-0.4,0-0.6,0.1-0.7,0.1C9.3,9,9.2,9.1,9,9.2C8.9,9.3,8.8,9.5,8.7,9.7C8.7,9.8,8.6,10,8.6,10.4
		c0,0.4,0,0.5,0,1.6c0,1.1,0,1.2,0,1.6c0,0.4,0.1,0.6,0.1,0.7c0.1,0.2,0.2,0.3,0.3,0.5c0.1,0.1,0.3,0.2,0.5,0.3
		c0.1,0.1,0.4,0.1,0.7,0.1c0.4,0,0.6,0,1.6,0c1.1,0,1.2,0,1.6,0c0.4,0,0.6-0.1,0.7-0.1c0.2-0.1,0.3-0.2,0.5-0.3
		c0.1-0.1,0.2-0.3,0.3-0.5C15.1,14.2,15.2,14,15.2,13.6 M15.9,12c0,1.1,0,1.2,0,1.7c0,0.4-0.1,0.7-0.2,1c-0.1,0.3-0.2,0.5-0.5,0.7
		c-0.2,0.2-0.4,0.4-0.7,0.5c-0.3,0.1-0.6,0.2-1,0.2c-0.4,0-0.6,0-1.7,0c-1.1,0-1.2,0-1.7,0c-0.4,0-0.7-0.1-1-0.2
		c-0.3-0.1-0.5-0.2-0.7-0.5c-0.2-0.2-0.4-0.4-0.5-0.7c-0.1-0.3-0.2-0.5-0.2-1c0-0.4,0-0.6,0-1.7s0-1.2,0-1.7c0-0.4,0.1-0.7,0.2-1
		c0.1-0.3,0.2-0.5,0.5-0.7C8.8,8.5,9,8.3,9.2,8.2c0.3-0.1,0.6-0.2,1-0.2c0.4,0,0.6,0,1.7,0c1.1,0,1.2,0,1.7,0c0.4,0,0.7,0.1,1,0.2
		c0.3,0.1,0.5,0.2,0.7,0.5c0.2,0.2,0.4,0.4,0.5,0.7c0.1,0.3,0.2,0.5,0.2,1C15.9,10.8,15.9,10.9,15.9,12 M20.5,11.7
		c0-4.7-3.9-8.6-8.6-8.6c-4.8,0-8.6,3.8-8.6,8.6s3.9,8.6,8.6,8.6C16.7,20.2,20.5,16.4,20.5,11.7"/>
</g>
</svg>
