<?xml version="1.0" encoding="utf-8"?>
<!-- Generator: Adobe Illustrator 22.0.0, SVG Export Plug-In . SVG Version: 6.00 Build 0)  -->
<svg version="1.1" id="Layer_1" xmlns="http://www.w3.org/2000/svg" xmlns:xlink="http://www.w3.org/1999/xlink" x="0px" y="0px"
	 viewBox="0 0 24 24" style="enable-background:new 0 0 24 24;" xml:space="preserve">
<style type="text/css">
	.st0{fill:none;}
	.st1{clip-path:url(#SVGID_2_);fill:#231F20;}
</style>
<path class="st0" d="M0,0h24v24H0V0z"/>
<g>
	<defs>
		<rect id="SVGID_1_" x="3.2" y="3" width="17.4" height="17.2"/>
	</defs>
	<clipPath id="SVGID_2_">
		<use xlink:href="#SVGID_1_"  style="overflow:visible;"/>
	</clipPath>
	<path class="st1" d="M17.1,14.6c0,0.4-0.3,0.7-0.7,0.7h-9c-0.4,0-0.7-0.3-0.7-0.7V9.5C6.7,9.1,7,9,7.3,9.2l4.1,3.1
		c0.2,0.1,0.4,0.2,0.6,0.2c0.2,0,0.4-0.1,0.5-0.2l4.1-3.1c0.3-0.2,0.6-0.1,0.6,0.3V14.6z M16.3,8.5l-3.7,3c-0.2,0.1-0.4,0.2-0.6,0.2
		c-0.2,0-0.5,0-0.6-0.2l-3.7-3C7.3,8.2,7.3,8,7.7,8h8.4C16.5,8,16.6,8.2,16.3,8.5 M20.6,11.7c0-4.8-3.9-8.6-8.7-8.6
		c-4.8,0-8.7,3.9-8.7,8.6s3.9,8.6,8.7,8.6C16.7,20.3,20.6,16.4,20.6,11.7"/>
</g>
</svg>
