<?xml version="1.0" encoding="utf-8"?>
<!-- Generator: Adobe Illustrator 22.0.0, SVG Export Plug-In . SVG Version: 6.00 Build 0)  -->
<svg version="1.1" id="Layer_1" xmlns="http://www.w3.org/2000/svg" xmlns:xlink="http://www.w3.org/1999/xlink" x="0px" y="0px"
	 viewBox="0 0 24 24" style="enable-background:new 0 0 24 24;" xml:space="preserve">
<style type="text/css">
	.st0{fill:none;}
	.st1{fill:#231F20;}
</style>
<path class="st0" d="M0,0h24v24H0V0z"/>
<g>
	<path class="st1" d="M15.3,9.1c0.4,0,0.7-0.1,1-0.3c-0.2,0.4-0.5,0.7-0.9,0.9c0.1,2.5-1.8,5.3-5.1,5.3c-1,0-2-0.3-2.8-0.8
		c1,0.1,1.9-0.2,2.7-0.7c-0.8,0-1.5-0.5-1.7-1.2c0.3,0.1,0.6,0,0.8,0c-0.9-0.2-1.5-0.9-1.4-1.8c0.2,0.1,0.5,0.2,0.8,0.2
		c-0.8-0.5-1-1.6-0.6-2.4c0.9,1.1,2.2,1.8,3.7,1.9C11.6,9,12.4,8,13.6,8c0.5,0,1,0.2,1.3,0.6c0.4-0.1,0.8-0.2,1.1-0.4
		C15.9,8.5,15.6,8.9,15.3,9.1 M20.6,11.6c0-4.8-3.9-8.6-8.7-8.6c-4.8,0-8.7,3.9-8.7,8.6s3.9,8.6,8.7,8.6
		C16.7,20.2,20.6,16.4,20.6,11.6"/>
</g>
</svg>
