<?xml version="1.0" encoding="utf-8"?>
<!-- Generator: Adobe Illustrator 22.0.0, SVG Export Plug-In . SVG Version: 6.00 Build 0)  -->
<svg version="1.1" id="Layer_1" xmlns="http://www.w3.org/2000/svg" xmlns:xlink="http://www.w3.org/1999/xlink" x="0px" y="0px"
	 viewBox="0 0 24 24" style="enable-background:new 0 0 24 24;" xml:space="preserve">
<style type="text/css">
	.st0{fill:none;}
	.st1{fill:#231F20;}
</style>
<path class="st0" d="M0,0h24v24H0V0z"/>
<g>
	<path class="st1" d="M12.3,9.7v0.8h1.2l-0.1,1.3h-1.1v4h-1.6v-4H9.9v-1.4h0.8V9.4c0-1,0.5-1.5,1.7-1.5h1.1v1.4h-0.9
		C12.4,9.3,12.3,9.4,12.3,9.7 M20.6,11.6c0-4.8-3.9-8.6-8.7-8.6c-4.8,0-8.7,3.9-8.7,8.6s3.9,8.6,8.7,8.6
		C16.7,20.2,20.6,16.4,20.6,11.6"/>
</g>
</svg>
