<?xml version="1.0" encoding="utf-8"?>
<!-- Generator: Adobe Illustrator 22.0.0, SVG Export Plug-In . SVG Version: 6.00 Build 0)  -->
<svg version="1.1" id="Layer_1" xmlns="http://www.w3.org/2000/svg" xmlns:xlink="http://www.w3.org/1999/xlink" x="0px" y="0px"
	 viewBox="0 0 24 24" style="enable-background:new 0 0 24 24;" xml:space="preserve">
<style type="text/css">
	.st0{fill:none;}
	.st1{fill:#231F20;}
</style>
<path class="st0" d="M0,0h24v24H0V0z"/>
<g>
	<path class="st1" d="M16.4,15.6l-0.7,0.7c-0.1,0.1-0.5,0.2-0.5,0.2c-2.2,0-4.3-0.8-5.8-2.4C7.8,12.6,7,10.5,7,8.3
		c0,0,0.1-0.4,0.2-0.5l0.7-0.7C8.1,6.8,8.6,6.7,9,6.8l0.1,0C9.4,7,9.8,7.4,9.9,7.7L10.2,9c0.1,0.3,0,0.8-0.3,1.1l-0.5,0.5
		c0.5,1.7,1.8,3,3.4,3.4l0.5-0.5c0.3-0.3,0.7-0.4,1.1-0.3l1.3,0.3c0.3,0.1,0.7,0.4,0.8,0.8l0,0.1C16.8,14.9,16.6,15.4,16.4,15.6
		 M11.8,3c-4.8,0-8.6,3.9-8.6,8.6s3.9,8.6,8.6,8.6s8.6-3.9,8.6-8.6S16.6,3,11.8,3"/>
</g>
</svg>
