<?xml version="1.0" encoding="utf-8"?>
<!-- Generator: Adobe Illustrator 22.0.0, SVG Export Plug-In . SVG Version: 6.00 Build 0)  -->
<svg version="1.1" id="Layer_1" xmlns="http://www.w3.org/2000/svg" xmlns:xlink="http://www.w3.org/1999/xlink" x="0px" y="0px"
	 viewBox="0 0 97 97" style="enable-background:new 0 0 97 97;" xml:space="preserve">
<style type="text/css">
	.st0{fill:#C4C7BF;}
	.st1{fill:#96ADBA;}
	.st2{fill:#5E4A3B;}
	.st3{fill:#453629;}
	.st4{fill:#F7BF5C;}
	.st5{fill:#F7F7F7;}
	.st6{fill:#638296;}
	.st7{fill:#BF5757;}
	.st8{fill:#BD3030;}
	.st9{fill:#A1824F;}
	.st10{fill:#C2994F;}
	.st11{fill:#806B47;}
	.st12{fill:#3D2929;}
	.st13{fill:#4F6678;}
	.st14{fill:#30404A;}
	.st15{fill:#42525E;}
	.st16{fill:#F76B6B;}
	.st17{fill:#A63B3B;}
	.st18{fill:#AD6E47;}
	.st19{fill:#704226;}
	.st20{fill:#874F2E;}
	.st21{fill:#6E9C8C;}
	.st22{fill:#9E9E99;}
</style>
<g>
	<path class="st0" d="M90,79.6H34.9c-12.8,0-23.2-10.4-23.2-23.2V7.8c0-1.4,1.1-2.6,2.6-2.6H66c14.7,0,26.5,11.9,26.5,26.5V77
		C92.5,78.4,91.4,79.6,90,79.6"/>
	<path class="st1" d="M72.5,35.9c0,13.1-10.6,23.7-23.7,23.7C35.6,59.6,25,49,25,35.9c0-13.1,10.6-23.7,23.7-23.7
		C61.8,12.1,72.5,22.7,72.5,35.9"/>
	<path class="st2" d="M55,47.4c-0.2,1-0.2,1-0.4,2.1c-0.2,1-0.2,1.1-0.4,2.1c-0.2,1-0.2,1-0.4,2.1c-0.2,1-0.2,1-0.4,2.1
		c-0.2,1-0.2,1-0.4,2.1c-0.2,1-0.2,1-0.4,2.1c-0.2,1-0.2,1-0.4,2.1C52,62.9,52,63,51.8,64c-0.2,1-0.3,1-0.5,2
		c-0.2,1-0.2,1.1-0.4,2.1c-0.2,1-0.3,1-0.5,2.1c-0.2,1-0.2,1-0.4,2.1c-0.2,1-0.2,1-0.4,2.1c-0.2,1-0.2,1.1-0.4,2.1
		c-0.2,1-0.2,1-0.4,2.1c-0.2,1-0.2,1.1-0.4,2.1c-0.2,1-0.2,1-0.4,2.1c-0.2,1-0.2,1-0.4,2.1c-0.2,1-0.2,1-0.4,2.1
		c-0.2,1-0.1,1.1-0.3,2.1c-0.1,0.4-0.1,0.6-0.2,0.8h3.5c0.1-0.2,0.1-0.4,0.2-0.8c0.2-1,0.2-1,0.4-2.1c0.2-1,0.1-1.1,0.3-2.1
		c0.2-1,0.3-1,0.5-2c0.2-1,0.2-1.1,0.4-2.1c0.2-1,0.2-1,0.4-2.1c0.2-1,0.1-1.1,0.3-2.1c0.2-1,0.2-1,0.4-2.1c0.2-1,0.2-1,0.4-2.1
		c0.2-1,0.3-1,0.5-2c0.2-1,0.2-1,0.4-2.1c0.2-1,0.2-1,0.4-2.1c0.2-1,0.2-1,0.4-2.1c0.2-1,0.2-1,0.4-2.1c0.2-1,0.2-1,0.4-2.1
		c0.2-1,0.2-1,0.4-2.1c0.2-1,0.1-1.1,0.3-2.1c0.2-1,0.3-1,0.5-2c0.2-1,0.2-1.1,0.4-2.1c0.2-1,0.2-1,0.4-2.1c0.2-1,0.1-1.1,0.3-2.1
		H55L55,47.4z"/>
	<path class="st2" d="M84.1,47.4c0.2,1,0.2,1,0.4,2.1c0.2,1,0.2,1.1,0.4,2.1c0.2,1,0.2,1,0.4,2.1c0.2,1,0.2,1,0.4,2.1
		c0.2,1,0.2,1,0.4,2.1c0.2,1,0.2,1,0.4,2.1c0.2,1,0.2,1,0.4,2.1c0.2,1,0.2,1.1,0.4,2.1c0.2,1,0.3,1,0.5,2c0.2,1,0.2,1.1,0.4,2.1
		c0.2,1,0.3,1,0.5,2.1c0.2,1,0.2,1,0.4,2.1c0.2,1,0.2,1,0.4,2.1c0.2,1,0.2,1.1,0.4,2.1c0.2,1,0.2,1,0.4,2.1c0.2,1,0.2,1.1,0.4,2.1
		c0.2,1,0.2,1,0.4,2.1c0.2,1,0.2,1,0.4,2.1c0.2,1,0.2,1,0.4,2.1c0.2,1,0.1,1.1,0.3,2.1c0.1,0.4,0.1,0.6,0.2,0.8h-3.5
		c-0.1-0.2-0.1-0.4-0.2-0.8c-0.2-1-0.2-1-0.4-2.1c-0.2-1-0.1-1.1-0.3-2.1c-0.2-1-0.3-1-0.5-2c-0.2-1-0.2-1.1-0.4-2.1
		c-0.2-1-0.2-1-0.4-2.1c-0.2-1-0.1-1.1-0.3-2.1c-0.2-1-0.2-1-0.4-2.1c-0.2-1-0.2-1-0.4-2.1c-0.2-1-0.3-1-0.5-2c-0.2-1-0.2-1-0.4-2.1
		c-0.2-1-0.2-1-0.4-2.1c-0.2-1-0.2-1-0.4-2.1c-0.2-1-0.2-1-0.4-2.1c-0.2-1-0.2-1-0.4-2.1c-0.2-1-0.2-1-0.4-2.1
		c-0.2-1-0.1-1.1-0.3-2.1c-0.2-1-0.3-1-0.5-2c-0.2-1-0.2-1.1-0.4-2.1c-0.2-1-0.2-1-0.4-2.1c-0.2-1-0.1-1.1-0.3-2.1H84.1L84.1,47.4z"
		/>
	<path class="st3" d="M85.6,55.7c-0.2-1-0.2-1-0.4-2.1c-0.2-1-0.2-1-0.4-2.1c-0.2-1-0.2-1.1-0.4-2.1c-0.2-1-0.2-1-0.4-2.1h-3.5
		c0.2,1,0.1,1,0.3,2.1c0.2,1,0.2,1,0.4,2.1c0.2,1,0.2,1.1,0.4,2.1c0.2,1,0.3,1,0.5,2c0.1,0.7,0.1,0.9,0.2,1.4
		c1.2,0.2,2.4,0.4,3.6,0.7C85.8,56.7,85.8,56.7,85.6,55.7L85.6,55.7z"/>
	<path class="st3" d="M54.5,49.5c-0.2,1-0.2,1.1-0.4,2.1c-0.2,1-0.2,1-0.4,2.1c-0.1,0.4-0.1,0.7-0.2,0.9c1,0,2.2,0.1,3.5,0.1
		c0.1-0.2,0.1-0.5,0.2-1c0.2-1,0.2-1.1,0.4-2.1c0.2-1,0.2-1,0.4-2.1c0.2-1,0.1-1.1,0.3-2.1H55C54.8,48.4,54.7,48.4,54.5,49.5
		L54.5,49.5z"/>
	<polygon class="st4" points="94.3,47.8 43.6,47.8 43.6,10.5 94.3,10.5 94.3,47.8 	"/>
	<polygon class="st2" points="95.3,47.8 42.1,47.8 42.1,51.1 95.3,51.1 95.3,47.8 	"/>
	<path class="st5" d="M91.3,33.8c0,5.1-4.1,9.3-9.3,9.3s-9.3-4.1-9.3-9.3c0-5.1,4.1-9.3,9.3-9.3S91.3,28.7,91.3,33.8L91.3,33.8z"/>
	<path class="st1" d="M86,25.5l-4,8.3h9.3C91.3,30.1,89.1,27,86,25.5L86,25.5z"/>
	<path class="st6" d="M82,33.8l-3.2,8.7c1,0.4,2.1,0.6,3.2,0.6c5.1,0,9.3-4.1,9.3-9.3H82L82,33.8z"/>
	<path class="st7" d="M73.8,29.5c-0.7,1.3-1.1,2.7-1.1,4.3c0,1.2,0.2,2.3,0.6,3.3l8.6-3.3L73.8,29.5L73.8,29.5z"/>
	<path class="st8" d="M82,33.8l4-8.3c-1.2-0.6-2.6-0.9-4-0.9c-3.6,0-6.7,2-8.2,5L82,33.8L82,33.8z"/>
	<path class="st9" d="M46.6,33.2c0,0,0.1,0,0.3,0c0.2,0,0.4,0,0.6,0c0.2,0,0.4,0,0.5,0c0.1,0,0.3,0,0.5,0c0.5,0,1.3-0.1,1.8-0.1
		c0.1,0,0.1,0,0.2,0c0.5,0,0.8,0.1,1.3,0.1l0,0h0c0.6,0,0.6,0,1.1,0c0.5,0,0.7,0,1,0c0.1,0,0.1,0,0.2,0c0.2,0,0.3,0,0.4,0.1
		c0.1,0,0.3,0.1,0.5,0.1c0.1,0,0.3,0,0.5,0c0.2,0,0.3,0,0.4,0c0.1,0,0.2,0,0.4,0c0.1,0,0.2,0,0.4,0l0.1,0h0c0.6,0,0.9-0.1,1.4-0.1
		c0.2,0,0.4,0,0.5,0c0.3,0,0.5,0,0.8,0c0.1,0,0.2,0,0.3,0c0.6,0,1.6,0,1.6,0l0-0.3c0,0-1,0-1.6,0c-0.1,0-0.2,0-0.3,0
		c-0.3,0-0.6,0-0.8,0c-0.2,0-0.4,0-0.6,0c-0.5,0-0.8,0.1-1.3,0.1h0l-0.1,0c-0.2,0-0.3,0-0.4,0c-0.1,0-0.2,0-0.4,0
		c-0.1,0-0.3,0-0.5,0c-0.2,0-0.3,0-0.4,0c-0.2,0-0.3,0-0.4-0.1c-0.1,0-0.3-0.1-0.5-0.1c-0.1,0-0.2,0-0.2,0c-0.3,0-0.6,0-1.1,0
		c-0.6,0-0.6,0-1.1,0l0,0l0,0l0,0c-0.5,0-0.7-0.1-1.3-0.1c-0.1,0-0.1,0-0.2,0c-0.5,0-1.3,0.1-1.8,0.1c-0.2,0-0.4,0-0.5,0
		c-0.2,0-0.4,0-0.6,0c-0.4,0-0.9,0-0.9,0L46.6,33.2L46.6,33.2L46.6,33.2z"/>
	<path class="st9" d="M46.6,35.7c0,0,0.1,0,0.3,0c0.2,0,0.4,0,0.6,0c0.2,0,0.4,0,0.5,0c0.1,0,0.3,0,0.5,0c0.5,0,1.3-0.1,1.8-0.1
		c0.1,0,0.1,0,0.2,0c0.5,0,0.8,0.1,1.3,0.1l0,0h0c0.6,0,0.6,0,1.1,0c0.5,0,0.7,0,1,0c0.1,0,0.1,0,0.2,0c0.2,0,0.3,0,0.4,0.1
		c0.1,0,0.3,0.1,0.5,0.1c0.1,0,0.3,0,0.5,0c0.2,0,0.3,0,0.4,0c0.1,0,0.2,0,0.4,0c0.1,0,0.2,0,0.4,0l0.1,0l0,0c0.6,0,0.9-0.1,1.4-0.1
		c0.2,0,0.4,0,0.5,0c0.3,0,0.5,0,0.8,0c0.1,0,0.2,0,0.3,0c0.6,0,1.6,0,1.6,0l0-0.3c0,0-1,0-1.6,0c-0.1,0-0.2,0-0.3,0
		c-0.3,0-0.6,0-0.8,0c-0.2,0-0.4,0-0.6,0c-0.5,0-0.8,0.1-1.3,0.1h0l-0.1,0c-0.2,0-0.3,0-0.4,0c-0.1,0-0.2,0-0.4,0
		c-0.1,0-0.3,0-0.5,0c-0.2,0-0.3,0-0.4,0c-0.2,0-0.3,0-0.4-0.1c-0.1,0-0.3-0.1-0.5-0.1c-0.1,0-0.2,0-0.2,0c-0.3,0-0.6,0-1.1,0
		c-0.6,0-0.6,0-1.1,0h0h0l0,0c-0.5,0-0.7-0.1-1.3-0.1c-0.1,0-0.1,0-0.2,0c-0.5,0-1.3,0.1-1.8,0.1c-0.2,0-0.4,0-0.5,0
		c-0.2,0-0.4,0-0.6,0c-0.4,0-0.9,0-0.9,0L46.6,35.7L46.6,35.7L46.6,35.7z"/>
	<path class="st9" d="M46.6,38.2c0,0,0.1,0,0.3,0c0.2,0,0.4,0,0.6,0c0.2,0,0.4,0,0.5,0c0.1,0,0.3,0,0.5,0c0.5,0,1.3-0.1,1.8-0.1
		c0.1,0,0.1,0,0.2,0c0.5,0,0.8,0.1,1.3,0.1l0,0h0c0.6,0,0.6,0,1.1,0c0.5,0,0.7,0,1,0c0.1,0,0.1,0,0.2,0c0.2,0,0.3,0,0.4,0.1
		c0.1,0,0.3,0.1,0.5,0.1c0.1,0,0.3,0,0.5,0c0.2,0,0.3,0,0.4,0c0.1,0,0.2,0,0.4,0c0.1,0,0.2,0,0.4,0l0.1,0c0.6,0,0.9-0.1,1.4-0.1
		c0.2,0,0.4,0,0.5,0c0.3,0,0.5,0,0.8,0c0.1,0,0.2,0,0.3,0c0.6,0,1.6,0,1.6,0l0-0.3c0,0-1,0-1.6,0c-0.1,0-0.2,0-0.3,0
		c-0.3,0-0.6,0-0.8,0c-0.2,0-0.4,0-0.6,0c-0.5,0-0.8,0.1-1.3,0.1l-0.1,0c-0.2,0-0.3,0-0.4,0c-0.1,0-0.2,0-0.4,0c-0.1,0-0.3,0-0.5,0
		c-0.2,0-0.3,0-0.4,0c-0.2,0-0.3,0-0.4-0.1c-0.1,0-0.3-0.1-0.5-0.1c-0.1,0-0.2,0-0.2,0c-0.3,0-0.6,0-1.1,0c-0.6,0-0.6,0-1.1,0l0,0
		l0,0l0,0c-0.5,0-0.7-0.1-1.3-0.1c-0.1,0-0.1,0-0.2,0c-0.5,0-1.3,0.1-1.8,0.1c-0.2,0-0.4,0-0.5,0c-0.2,0-0.4,0-0.6,0
		c-0.4,0-0.9,0-0.9,0L46.6,38.2L46.6,38.2L46.6,38.2z"/>
	<path class="st9" d="M46.6,40.7c0,0,0.1,0,0.3,0c0.2,0,0.4,0,0.6,0c0.2,0,0.4,0,0.5,0c0.1,0,0.3,0,0.5,0c0.5,0,1.3-0.1,1.8-0.1
		c0.1,0,0.1,0,0.2,0c0.5,0,0.8,0.1,1.3,0.1l0,0h0c0.6,0,0.6,0,1.1,0c0.5,0,0.7,0,1,0c0.1,0,0.1,0,0.2,0c0.2,0,0.3,0,0.4,0.1
		c0.1,0,0.3,0.1,0.5,0.1c0.1,0,0.3,0,0.5,0c0.2,0,0.3,0,0.4,0c0.1,0,0.2,0,0.4,0c0.1,0,0.2,0,0.4,0l0.1,0c0.6,0,0.9-0.1,1.4-0.1
		c0.2,0,0.4,0,0.5,0c0.3,0,0.5,0,0.8,0c0.1,0,0.2,0,0.3,0c0.6,0,1.6,0,1.6,0l0-0.3c0,0-1,0-1.6,0c-0.1,0-0.2,0-0.3,0
		c-0.3,0-0.6,0-0.8,0c-0.2,0-0.4,0-0.6,0c-0.5,0-0.8,0.1-1.3,0.1l-0.1,0c-0.2,0-0.3,0-0.4,0c-0.1,0-0.2,0-0.4,0c-0.1,0-0.3,0-0.5,0
		c-0.2,0-0.3,0-0.4,0c-0.2,0-0.3,0-0.4-0.1c-0.1,0-0.3-0.1-0.5-0.1c-0.1,0-0.2,0-0.2,0c-0.3,0-0.6,0-1.1,0c-0.6,0-0.6,0-1.1,0l0,0
		l0,0l0,0c-0.5,0-0.7-0.1-1.3-0.1c-0.1,0-0.1,0-0.2,0c-0.5,0-1.3,0.1-1.8,0.1c-0.2,0-0.4,0-0.5,0c-0.2,0-0.4,0-0.6,0
		c-0.4,0-0.9,0-0.9,0L46.6,40.7L46.6,40.7L46.6,40.7z"/>
	<path class="st9" d="M46.6,43.2c0,0,0.1,0,0.3,0c0.2,0,0.4,0,0.6,0c0.2,0,0.4,0,0.5,0c0.1,0,0.3,0,0.5,0c0.5,0,1.3-0.1,1.8-0.1
		c0.1,0,0.1,0,0.2,0c0.5,0,0.8,0.1,1.3,0.1l0,0h0c0.6,0,0.6,0,1.1,0c0.5,0,0.7,0,1,0c0.1,0,0.1,0,0.2,0c0.2,0,0.3,0,0.4,0.1
		c0.1,0,0.3,0.1,0.5,0.1c0.1,0,0.3,0,0.5,0c0.2,0,0.3,0,0.4,0c0.1,0,0.2,0,0.4,0c0.1,0,0.2,0,0.4,0l0.1,0c0.6,0,0.9-0.1,1.4-0.1
		c0.2,0,0.4,0,0.5,0c0.3,0,0.5,0,0.8,0c0.1,0,0.2,0,0.3,0c0.6,0,1.6,0,1.6,0l0-0.3c0,0-1,0-1.6,0c-0.1,0-0.2,0-0.3,0
		c-0.3,0-0.6,0-0.8,0c-0.2,0-0.4,0-0.6,0c-0.5,0-0.8,0.1-1.3,0.1l-0.1,0c-0.2,0-0.3,0-0.4,0c-0.1,0-0.2,0-0.4,0c-0.1,0-0.3,0-0.5,0
		c-0.2,0-0.3,0-0.4,0c-0.2,0-0.3,0-0.4-0.1c-0.1,0-0.3-0.1-0.5-0.1c-0.1,0-0.2,0-0.2,0c-0.3,0-0.6,0-1.1,0c-0.6,0-0.6,0-1.1,0l0,0
		l0,0l0,0c-0.5,0-0.7-0.1-1.3-0.1c-0.1,0-0.1,0-0.2,0c-0.5,0-1.3,0.1-1.8,0.1c-0.2,0-0.4,0-0.5,0c-0.2,0-0.4,0-0.6,0
		c-0.4,0-0.9,0-0.9,0L46.6,43.2L46.6,43.2L46.6,43.2z"/>
	<path class="st9" d="M66.4,21.5c0,0,0.7,0,1.4,0c0.3,0,0.7,0,0.9,0c0.2,0,0.5,0,0.8,0c0.9,0,2-0.1,2.9-0.1c0.1,0,0.2,0,0.3,0
		c0.9,0,1.2,0.1,2,0.1l0.1,0c0.9,0,0.9,0,1.8,0c0.7,0,1.2,0,1.7,0c0.1,0,0.2,0,0.4,0c0.5,0,0.8,0.1,1.4,0.1c0.2,0,0.4,0,0.7,0
		c0.3,0,0.5,0,0.7,0c0.5,0,0.7,0.1,1.3,0.1l0.1,0c0.9,0,1.4-0.1,2.2-0.1c0.3,0,0.6,0,0.9,0c0.4,0,0.9,0,1.3,0c0.1,0,0.3,0,0.5,0
		c1,0,2.6,0,2.6,0l0-0.3c0,0-1.6,0-2.6,0c-0.2,0-0.4,0-0.5,0c-0.4,0-0.9,0-1.3,0c-0.3,0-0.6,0-0.9,0c-0.8,0-1.3,0.1-2.2,0.1l-0.1,0
		c-0.5,0-0.7-0.1-1.3-0.1c-0.2,0-0.4,0-0.7,0c-0.3,0-0.5,0-0.7,0c-0.6,0-0.9-0.1-1.4-0.1c-0.1,0-0.3,0-0.4,0c-0.5,0-1,0-1.7,0
		c-0.9,0-0.9,0-1.8,0l-0.1,0c-0.8,0-1.1-0.1-2-0.1c-0.1,0-0.2,0-0.3,0c-0.8,0-2,0.1-2.8,0.1c-0.3,0-0.6,0-0.8,0c-0.2,0-0.6,0-0.9,0
		c-0.7,0-1.4,0-1.4,0L66.4,21.5L66.4,21.5z"/>
	<path class="st9" d="M66.4,18.3c0,0,0.7,0,1.4,0c0.3,0,0.7,0,0.9,0c0.2,0,0.5,0,0.8,0c0.9,0,2-0.1,2.9-0.1c0.1,0,0.2,0,0.3,0
		c0.9,0,1.2,0.1,2,0.1l0.1,0h0c0.9,0,0.9,0,1.8,0c0.7,0,1.2,0,1.7,0c0.1,0,0.2,0,0.4,0c0.5,0,0.8,0.1,1.4,0.1c0.2,0,0.4,0,0.7,0
		c0.3,0,0.5,0,0.7,0c0.5,0,0.7,0.1,1.3,0.1l0.1,0c0.9,0,1.4-0.1,2.2-0.1c0.3,0,0.6,0,0.9,0c0.4,0,0.9,0,1.3,0c0.1,0,0.3,0,0.5,0
		c1,0,2.6,0,2.6,0l0-0.3c0,0-1.6,0-2.6,0c-0.2,0-0.4,0-0.5,0c-0.4,0-0.9,0-1.3,0c-0.3,0-0.6,0-0.9,0c-0.8,0-1.3,0.1-2.2,0.1l-0.1,0
		c-0.5,0-0.7-0.1-1.3-0.1c-0.2,0-0.4,0-0.7,0c-0.3,0-0.5,0-0.7,0c-0.6,0-0.9-0.1-1.4-0.1c-0.1,0-0.3,0-0.4,0c-0.5,0-1,0-1.7,0
		c-0.9,0-0.9,0-1.8,0h0l-0.1,0c-0.8,0-1.1-0.1-2-0.1c-0.1,0-0.2,0-0.3,0c-0.8,0-2,0.1-2.8,0.1c-0.3,0-0.6,0-0.8,0
		c-0.2,0-0.6,0-0.9,0c-0.7,0-1.4,0-1.4,0L66.4,18.3L66.4,18.3L66.4,18.3z"/>
	<path class="st9" d="M76.3,15c0,0,0.1,0,0.3,0c0.2,0,0.4,0,0.6,0c0.2,0,0.4,0,0.5,0c0.1,0,0.3,0,0.5,0c0.5,0,1.2-0.1,1.7-0.1
		c0.1,0,0.1,0,0.2,0c0.5,0,0.7,0.1,1.2,0.1l0,0c0.5,0,0.6,0,1.1,0c0.4,0,0.7,0,1,0c0.1,0,0.1,0,0.2,0c0.1,0,0.3,0,0.4,0.1
		c0.1,0,0.3,0.1,0.5,0.1c0.1,0,0.3,0,0.4,0c0.2,0,0.3,0,0.4,0c0.1,0,0.2,0,0.3,0c0.1,0,0.2,0,0.4,0l0.1,0h0c0.5,0,0.8-0.1,1.3-0.1
		c0.2,0,0.3,0,0.5,0c0.3,0,0.5,0,0.8,0c0.1,0,0.2,0,0.3,0c0.6,0,1.5,0,1.5,0l0-0.3c0,0-1,0-1.5,0c-0.1,0-0.2,0-0.3,0
		c-0.3,0-0.5,0-0.8,0c-0.2,0-0.4,0-0.5,0c-0.5,0-0.8,0.1-1.3,0.1h0l-0.1,0c-0.2,0-0.2,0-0.4,0c-0.1,0-0.2,0-0.4,0
		c-0.1,0-0.3,0-0.4,0c-0.2,0-0.3,0-0.4,0c-0.2,0-0.3,0-0.4-0.1c-0.1,0-0.3-0.1-0.4-0.1c-0.1,0-0.2,0-0.2,0c-0.3,0-0.6,0-1,0
		c-0.5,0-0.5,0-1.1,0l0,0c-0.4,0-0.7-0.1-1.2-0.1c-0.1,0-0.1,0-0.2,0c-0.5,0-1.2,0.1-1.7,0.1c-0.2,0-0.4,0-0.4,0c-0.2,0-0.3,0-0.6,0
		c-0.4,0-0.8,0-0.8,0L76.3,15L76.3,15L76.3,15z"/>
	<path class="st10" d="M70.5,14.6l-9.9,5.7l-17.1,3.9v7.2C59.7,30.3,68.4,19,68.4,19l0.4-0.7c0,0,0,0,0,0c-0.2,0-0.5,0-0.9,0
		c0,0,0,0,0,0c-0.7,0-1.4,0-1.4,0l0,0l0-0.3c0,0,0.7,0,1.4,0c0.3,0,0.7,0,0.9,0c0,0,0.1,0,0.1,0L70.5,14.6L70.5,14.6z"/>
	<path class="st11" d="M67.8,17.9c-0.7,0-1.4,0-1.4,0l0,0.3l0,0c0,0,0.7,0,1.4,0c0,0,0,0,0,0c0.3,0,0.7,0,0.9,0c0,0,0,0,0,0l0.1-0.3
		c0,0-0.1,0-0.1,0C68.5,18,68.2,17.9,67.8,17.9"/>
	<path class="st12" d="M38.4,87.3l0.9,2c0,0,4.3,2.3,4.1,2.6s-4.3,0.3-5-0.2c-0.8-0.5-1.3-0.3-1.9-0.6s0.4-3,0-3.6L38.4,87.3
		L38.4,87.3z"/>
	<path class="st12" d="M17.2,87.2c0,0,0,2.5,0,3.1c0,0.6-0.5,1-0.9,1c-0.4,0-1.2,0.1-1.8,0.5c-0.6,0.4-3,2.1-4.4,1.3l3.7-3.4l1-1.5
		l0.3-0.9H17.2L17.2,87.2z"/>
	<path class="st13" d="M38.3,39.2c0,0,2.5,31.5,1.2,48.7c0,0-2.8,0.5-3.8-0.4c-1-0.9-1.8-14.3-2.1-18.4L31,54.4
		c0,0-4.6,12.2-5.9,16.8c-1.3,4.6-6.2,16.9-6.9,16.9c-0.7,0-4.3-0.4-4.3-0.4s3.5-16.3,5-21.1c1.5-4.8,4.3-18.6,5.1-20.8
		c0.9-2.2,0.5-5.5,0.5-5.5L38.3,39.2L38.3,39.2z"/>
	<path class="st14" d="M31.4,44.1c2.3-1.4,5.7-2,7-2.2c-0.1-1.8-0.2-2.8-0.2-2.8l-13.9,1.1c0,0,0.3,3.2-0.5,5.5
		C25.7,46.3,28.8,45.7,31.4,44.1L31.4,44.1z"/>
	<path class="st15" d="M34,75.6c1.4-1.2,2.3-11,1.6-14c-0.7-3-2-3.9-2.6-5.8c-0.6-1.9-1-5.6-1-5.6s-0.5,2.4-1.1,4.1l2.6,14.7
		C33.7,70.5,33.8,73,34,75.6L34,75.6z"/>
	<path class="st15" d="M32,40.2c0,0,0,0.3,0,0.8c0.1,1.4,0.2,4.6,0.2,6.6c0,0.6,0,1,0,1.4l0.3,0c0-0.4,0-0.8,0-1.4
		c0-2.8-0.2-7.4-0.2-7.4L32,40.2L32,40.2L32,40.2z"/>
	<path class="st15" d="M33.5,40.5c0,0,0,0.3,0.1,0.7c0,0.4,0.1,1,0.1,1.6c0,0.6,0,1.1-0.2,1.5c-0.2,0.6-0.5,1-0.8,1.2
		c-0.1,0.1-0.2,0.2-0.3,0.3l-0.1,0.1l0,0l0,0l0.1,0.2c0,0,0.9-0.5,1.4-1.7c0.1-0.4,0.2-1,0.2-1.6c0-1.2-0.2-2.3-0.2-2.3L33.5,40.5
		L33.5,40.5L33.5,40.5z"/>
	<path class="st15" d="M36.2,40.2L36.2,40.2c0,0.2,0,1,0.3,1.9c0.3,0.9,0.9,1.8,2.1,2.1l0.1-0.2c-1.1-0.3-1.6-1.1-1.9-2
		c-0.3-0.8-0.3-1.6-0.3-1.8l0,0L36.2,40.2L36.2,40.2z"/>
	<path class="st15" d="M26.3,41.2c0,0,0,0.1,0,0.2c0,0.4-0.1,1.3-0.5,2.1c-0.2,0.4-0.4,0.8-0.7,1.1c-0.3,0.3-0.7,0.5-1.1,0.6l0,0.2
		c0.6-0.1,1.1-0.4,1.4-0.9c1-1.3,1.1-3.4,1.1-3.4L26.3,41.2L26.3,41.2L26.3,41.2z"/>
	<path class="st15" d="M24.5,46.8c0,0,0,0,0,0.1c0,0.6,0,3-0.8,5.2c-0.4,1.3-1.6,5.4-2.7,9.5c-1.1,4.1-2.3,8.2-2.7,9.2
		c-0.8,2.2-2.1,7.7-2.1,7.7l0.2,0.1c0,0,0.1-0.3,0.2-0.9c0.4-1.7,1.3-5.2,1.9-6.8c0.4-1.1,1.5-5.2,2.7-9.3c1.1-4.1,2.3-8.2,2.7-9.5
		c0.7-2.2,0.8-4.7,0.8-5.3c0-0.1,0-0.1,0-0.1L24.5,46.8L24.5,46.8L24.5,46.8z"/>
	<polygon class="st12" points="66.6,17.5 66.2,16.9 70.1,14.1 70.5,14.6 66.6,17.5 	"/>
	<path class="st16" d="M61.5,18.6c0,0,2.3-0.9,3.1-1.7c0.5-0.6,1.4-1.1,1.8-1.4c0.2-0.1,0.4-0.2,0.7-0.2h1.4l-1.9,1.3l0.2,0.6
		l1.9-1.2c0,0-1.2,2.3-2.2,2.6c-1,0.3-3.2,1-4.4,2.1L61.5,18.6L61.5,18.6z"/>
	<path class="st16" d="M30.1,10.6c0,0,0.2,1.5,0.7,2.5c0.6,1.1,0.5,2.3-0.4,2.6l1,3.9c0,0-1.1,1.6-4,0.8l-0.8-4.9
		c0,0-1.7-2.2-1.3-3.2C25.8,11.2,30.1,10.6,30.1,10.6L30.1,10.6z"/>
	<path class="st17" d="M30.5,15.7c-0.8,0.2-1.9,0-2.5-0.2c-0.6-0.3-0.7-0.1-0.6,0.1c0.1,0.2,0.4,0.9,1.3,1.1c0.9,0.2,1.4-0.4,2-0.2
		L30.5,15.7L30.5,15.7z"/>
	<path class="st18" d="M27.3,19c0,0,0.9,0.4,1.7,0.4l0.9,0.8c0,0-0.1-0.7,0.2-0.9c0.3-0.2,1.1-0.8,1.1-0.8V18c0,0,0.7-0.1,0.9,0.2
		c0.2,0.2,0.5,0.5,0.5,0.5s1.8-0.4,6.4,0.4c4.6,0.8,10.9,2.4,10.9,2.4s1.3-0.5,1.3,0l10.6-3.3l1.6,3.3c0,0-8.7,6-12.4,6.7
		c-3.7,0.7-11.4-0.6-11.4-0.6s-0.8,5.8-1,7.2S39.3,38,39,39c-0.2,1-1,1.7-2.8,1.6c-1.8-0.1-4.4,0.4-6.9,0.7c-2.4,0.2-5.1,0.4-5.6,0
		c-0.5-0.4-0.2-2.9-0.2-2.9l-0.9-3.2c0,0-1.2,5.9-2.7,7.6c-1.5,1.7-12.3,6-12.3,6l-0.9-3.3c0,0,5.8-4.5,6.5-5
		c0.7-0.5,0.5-2.9,1.2-2.8c0,0,1.8-8,2.4-10c0.6-2,2.7-5.4,5-6.3c2.3-0.9,4.9-1.7,4.9-1.7S26.7,18.9,27.3,19L27.3,19z"/>
	<path class="st19" d="M28.8,19.8l-0.2,1.4l0.1,0l0-0.1l0,0c-0.1-0.1-0.8-0.4-1.6-1.3L26.9,20c1,1.1,1.7,1.3,1.7,1.3l0.1,0l0.2-1.6
		L28.8,19.8L28.8,19.8z"/>
	<path class="st19" d="M30.1,19.7l0.9,1.2l0.1,0c0,0,0.1-0.1,0.3-0.2c0.1-0.1,0.3-0.3,0.4-0.5c0.1-0.1,0.3-0.4,0.5-0.7
		c0.2-0.2,0.4-0.4,0.4-0.4L32.3,19c0,0-0.2,0.2-0.4,0.4c-0.2,0.2-0.4,0.5-0.5,0.7c-0.1,0.1-0.2,0.3-0.3,0.4c-0.1,0-0.1,0.1-0.2,0.1
		l-0.1,0l0,0l0.1,0.1l0.1-0.1l-0.8-1.2L30.1,19.7L30.1,19.7z"/>
	<path class="st20" d="M23.5,28.5c0,0-0.3,4.7-0.7,6.7l0.9,3.2c0,0-0.1,0.6-0.1,1.3c0.4-0.7,1.1-1.7,1.3-2.8
		c0.4-1.7-0.4-2.1-0.5-4.5C24.3,29.9,24.3,28.9,23.5,28.5L23.5,28.5z"/>
	<path class="st20" d="M48.1,28.3c-0.6-0.2-1.2-0.5-1.5-0.9c-0.9-1-2.1-1.1-2.9-1.3c-0.8-0.2-2.8-2.9-4.2-3.4c0,0,0.2,1.4,0,2.3
		c-0.2,0.8,0,2.5,0,2.5S44.3,28.4,48.1,28.3L48.1,28.3z"/>
	<path class="st19" d="M50.8,22.1L50.8,22.1c0,0.1,0,0.1,0,0.2c0,0.2,0,0.5-0.2,0.8c-0.2,0.3-0.5,0.6-1.1,0.8l0.1,0.2
		c0.7-0.2,1.1-0.6,1.3-0.9c0.2-0.4,0.2-0.7,0.2-1c0-0.1,0-0.2,0-0.2L50.8,22.1L50.8,22.1z"/>
	<path class="st19" d="M30.1,20.8c0,0,0.1,2.1,0.5,3.5l0,0c0.3,1.3,1.4,5.4,1.4,7.3l0,0.1c0,0.1,0,0.1,0,0.2c0,2.1,0.7,9,0.7,9
		l0.2,0c0,0,0-0.4-0.1-1.1c-0.2-2-0.5-6.3-0.5-7.8c0-0.1,0-0.1,0-0.2l0-0.1c0-1.9-1.1-6-1.4-7.4l0,0c-0.2-0.7-0.3-1.5-0.4-2.2
		c-0.1-0.7-0.1-1.2-0.1-1.2L30.1,20.8L30.1,20.8L30.1,20.8z"/>
	<path class="st19" d="M20.3,23.3L20.3,23.3c0.2,0.1,0.9,0.4,1.6,1.1c0.7,0.8,1.4,2,1.4,4l0.2,0c-0.1-2.2-0.9-3.5-1.6-4.3
		c-0.8-0.8-1.6-1-1.6-1L20.3,23.3L20.3,23.3z"/>
	<path class="st19" d="M14.8,37.8c0,0,0.3,0.2,0.8,0.5c0.4,0.2,1,0.5,1.5,0.5c0.1,0,0.2,0,0.3,0l-0.1-0.2c-0.1,0-0.1,0-0.2,0
		c-0.4,0-0.9-0.2-1.4-0.5c-0.2-0.1-0.4-0.2-0.5-0.3c-0.1-0.1-0.2-0.1-0.2-0.1L14.8,37.8L14.8,37.8L14.8,37.8z"/>
	<path class="st19" d="M14.3,40.3c0,0,0.2,0,0.4,0c0.2,0,0.6,0,0.9,0c0.3,0,0.6,0,0.8,0.1l0.1-0.2C16.2,40,15.9,40,15.6,40
		c-0.6,0-1.3,0.1-1.3,0.1L14.3,40.3L14.3,40.3L14.3,40.3z"/>
	<polygon class="st13" points="16.6,47.8 6.7,51.4 1.5,39.5 11.4,35.8 16.6,47.8 	"/>
	<polygon class="st6" points="15.1,46.8 6.7,51.4 1.5,39.5 9.9,34.9 15.1,46.8 	"/>
	<path class="st16" d="M3.4,45.2c0-0.2,0.2-1.4,0.6-1.3c0.3,0,0,1.3,0,1.3s0.4-0.6,0.6-0.5c0.2,0.2,0,0.9,0,0.9l0.1,1.2L5,47.6
		C5,47.6,3.1,47.6,3.4,45.2L3.4,45.2z"/>
	<path class="st19" d="M37.8,25.1l-4.2,0.3l0,0.1c0,0,0,0.1,0,0.2c0,0.3,0,1.1,0.4,1.8c0.3,0.7,1,1.3,2.1,1.3c0.9,0,1.5-0.4,1.8-0.9
		c0.3-0.5,0.4-1.1,0.4-1.6c0-0.4-0.1-0.8-0.1-0.8l-0.2,0l0,0.1c0,0.1,0,0.4,0,0.7c0,0.4-0.1,1-0.3,1.5c-0.3,0.4-0.7,0.8-1.6,0.8
		c-1,0-1.6-0.5-1.9-1.2c-0.3-0.6-0.3-1.3-0.3-1.7c0-0.1,0-0.2,0-0.2l-0.1,0l0,0.1l4.1-0.3L37.8,25.1L37.8,25.1z"/>
	<path class="st12" d="M28.2,11.4c0,0-0.1,1.2-1.5,1.1c0,0,0.7,1.4,0.4,1.5c-0.3,0.2-0.4-0.4-0.4-0.4s-0.3,0.2-0.7-0.1
		c0,0,0.1,1.3,0.9,1.3l-0.2,0.8c0,0-1.2-0.9-1.6-1.8c-0.4-0.8-0.1-1.6-0.1-1.6s-0.4-1.4,0.2-2.1c0.9-1,2.2-0.6,2.2-0.6
		s1.5-1.6,3.5-1.3C32.9,8.4,31.1,12,28.2,11.4L28.2,11.4z"/>
	<path class="st19" d="M39.5,27.6c0-0.2,0-0.5,0-0.7c0-0.4,0-0.9,0-1.4c0-0.4,0-0.8,0.1-1.2c0-0.2,0-0.4,0-0.6
		c0-1.2-0.4-2.5-0.4-2.5L39,21.2c0,0,0,0.1,0.1,0.2c0.1,0.4,0.3,1.4,0.3,2.2c0,0.2,0,0.4,0,0.5c-0.1,0.4-0.1,0.8-0.1,1.2
		c0,0.5,0,1,0,1.4c0,0.3,0,0.5,0,0.7L39.5,27.6L39.5,27.6L39.5,27.6z"/>
	<path class="st19" d="M40.5,22.6c0,0,0,0.2-0.1,0.4c-0.1,0.4-0.2,1-0.4,1.5c-0.2,0.6-0.4,1.1-0.7,1.3l0.2,0.2
		c0.4-0.4,0.7-1.2,0.9-2c0.2-0.8,0.3-1.4,0.3-1.4L40.5,22.6L40.5,22.6L40.5,22.6z"/>
	<polyline class="st19" points="49.7,22 49,22.7 49.2,22.9 49.9,22.2 	"/>
	<path class="st21" d="M66.6,57.7c2.2-0.2,3.3,3.3,3.9,5.2c0.7,1.9,0.4,4.2,0.4,4.2s0.9-0.1,0.7,2.6c-0.2,2.6-4.3,7.7-4,9.2
		c0.3,1.6-1.1-3.2-3-4.4c-1.9-1.2-3.7-3.8-3-7.8C62.4,62.8,62.7,58.1,66.6,57.7L66.6,57.7z"/>
	<path class="st14" d="M66,59c0,0,0,13.2,1.9,21.8l0.2-0.1c-1-4.3-1.4-9.7-1.7-14.1c-0.1-2.2-0.2-4.1-0.2-5.5c0-1.4,0-2.2,0-2.2H66
		L66,59L66,59z"/>
	<path class="st21" d="M70.3,79c0,0-0.5-2,0.9-4.1c1.5-2.1,2.1-2.2,2.8-3.7c0.7-1.5,2.1-4.2,4.8-3.6c2.7,0.5,3.2,3.3,1.3,5
		c-1.9,1.7-3,1.9-3.7,3.4C75.8,77.5,72.3,79.7,70.3,79L70.3,79z"/>
	<path class="st14" d="M78.6,69.2c0,0-2.1,1.6-4.3,4c-2.2,2.4-4.5,5.4-4.9,8.4l0.2,0c0.4-2.8,2.7-5.9,4.9-8.2c1.1-1.2,2.2-2.2,3-2.8
		c0.4-0.3,0.7-0.6,1-0.8c0.2-0.2,0.4-0.3,0.4-0.3L78.6,69.2L78.6,69.2L78.6,69.2z"/>
	<path class="st21" d="M64.7,80c0,0,0.6-1,0.2-2.9c-0.4-1.9-2.4-2.3-2.9-3c-0.5-0.8-1.4-2.4-2.4-2c-1,0.4-2.1,1.8-0.7,4
		C60.3,78.1,63.9,79.3,64.7,80L64.7,80z"/>
	<path class="st14" d="M59.9,73.5c0.1,0.5,0.5,1.1,1,1.8c0.8,1,1.8,2.2,2.7,3.5c0.9,1.2,1.7,2.4,1.8,3.5l0.2,0
		c-0.2-1.5-1.5-3.2-2.8-4.8c-0.6-0.8-1.3-1.6-1.8-2.2c-0.5-0.7-0.9-1.3-1-1.8L59.9,73.5L59.9,73.5L59.9,73.5z"/>
	<path class="st18" d="M71.1,89.7h-7.8c-0.7,0-1.3-0.6-1.3-1.3v-8.1h10.5v8.1C72.5,89.1,71.9,89.7,71.1,89.7L71.1,89.7z"/>
	<path class="st20" d="M62,82.3c0.5,0.1,1.2,0.1,2.3,0c2.3-0.3,6.1,0.6,8.1,1.2v-3.1H62V82.3L62,82.3z"/>
	<path class="st22" d="M18.2,19.8c0,3.4-2.7,6.1-6.1,6.1c-3.4,0-6.1-2.7-6.1-6.1s2.7-6.1,6.1-6.1C15.4,13.7,18.2,16.4,18.2,19.8
		L18.2,19.8z"/>
	<path class="st5" d="M17.8,19.1c0,3.4-2.7,6.1-6.1,6.1c-3.4,0-6.1-2.7-6.1-6.1S8.3,13,11.7,13C15,13,17.8,15.7,17.8,19.1L17.8,19.1
		z"/>
	<path class="st12" d="M8.3,15.5l3.1,4.1c0.1,0.1,0.2,0.1,0.3,0.1l4.4-2.7c0.1-0.1,0.1-0.2,0.1-0.3c-0.1-0.1-0.2-0.1-0.3-0.1
		l-4.2,2.6l-3-4c-0.1-0.1-0.2-0.1-0.3,0C8.3,15.3,8.3,15.4,8.3,15.5L8.3,15.5L8.3,15.5z"/>
</g>
</svg>
