<svg xmlns="http://www.w3.org/2000/svg" width="10.672" height="10.672" viewBox="0 0 10.672 10.672">
    <defs>
        <style>
            .cls-1{fill:#9a9b9f}
        </style>
    </defs>
    <g id="tag-black-shape" transform="translate(-.002)">
        <path id="Path_176" d="M10.413 5.671L5.377.641a2.182 2.182 0 0 0-.719-.454A2.176 2.176 0 0 0 3.834 0H.9a.867.867 0 0 0-.63.268A.866.866 0 0 0 0 .9v2.93a2.175 2.175 0 0 0 .187.824 2.1 2.1 0 0 0 .454.711l5.039 5.046a.863.863 0 0 0 .634.261.9.9 0 0 0 .641-.261l3.459-3.466a.863.863 0 0 0 .261-.634.9.9 0 0 0-.262-.64zM2.894 2.892a.869.869 0 0 1-.638.264.9.9 0 0 1-.9-.9.9.9 0 0 1 .9-.9.9.9 0 0 1 .9.9.869.869 0 0 1-.262.636z" class="cls-1" data-name="Path 176"/>
    </g>
</svg>
